<?xml version="1.0" encoding="utf-8"?>
<!-- Generator: Adobe Illustrator 16.0.0, SVG Export Plug-In . SVG Version: 6.00 Build 0)  -->
<!DOCTYPE svg PUBLIC "-//W3C//DTD SVG 1.1//EN" "http://www.w3.org/Graphics/SVG/1.1/DTD/svg11.dtd">
<svg version="1.1" id="Layer_1" xmlns="http://www.w3.org/2000/svg" xmlns:xlink="http://www.w3.org/1999/xlink" x="0px" y="0px"
	 width="12px" height="12px" viewBox="0 0 12 12" enable-background="new 0 0 12 12" xml:space="preserve">
<g>
	<path fill="#FFFFFF" d="M12,6c0,3.313-2.688,6-6,6S0,9.313,0,6s2.688-6,6-6S12,2.688,12,6z M7.125,2.203
		c0-0.055-0.023-0.109-0.078-0.141C7,2.023,6.93,2,6.859,2H5.141C5.07,2,5,2.023,4.953,2.063C4.898,2.094,4.875,2.148,4.875,2.203
		l0.133,4.852c0,0.109,0.117,0.195,0.266,0.195h1.445c0.141,0,0.258-0.086,0.266-0.195L7.125,2.203z M7,8.258
		C7,8.117,6.891,8,6.758,8h-1.5C5.117,8,5,8.117,5,8.258v1.484C5,9.883,5.117,10,5.258,10h1.5C6.891,10,7,9.883,7,9.742V8.258z"/>
</g>
</svg>
