<svg id="Layer_1" data-name="Layer 1" xmlns="http://www.w3.org/2000/svg" viewBox="0 0 16 15.4"><defs><style>.cls-1{fill:#89c53f;}</style></defs><title>bank-green</title><g id="meanicons_60"><path class="cls-1" d="M2.8,13.44a0.31,0.31,0,0,0,.31-0.31V7.76A0.31,0.31,0,0,0,2.8,7.45H1.6a0.31,0.31,0,0,0-.31.31v5.36a0.31,0.31,0,0,0,.31.31H2.8Z" transform="translate(0 0)"/><path class="cls-1" d="M15.5,14H0.5a0.31,0.31,0,0,0-.31.31v0.81a0.31,0.31,0,0,0,.31.31h15a0.31,0.31,0,0,0,.31-0.31V14.27A0.31,0.31,0,0,0,15.5,14Z" transform="translate(0 0)"/><path class="cls-1" d="M6.67,13.44A0.31,0.31,0,0,0,7,13.13V7.76a0.31,0.31,0,0,0-.31-0.31H5.47a0.31,0.31,0,0,0-.31.31v5.36a0.31,0.31,0,0,0,.31.31h1.2Z" transform="translate(0 0)"/><path class="cls-1" d="M14.4,13.44a0.31,0.31,0,0,0,.31-0.31V7.76a0.31,0.31,0,0,0-.31-0.31H13.2a0.31,0.31,0,0,0-.31.31v5.36a0.31,0.31,0,0,0,.31.31h1.2Z" transform="translate(0 0)"/><path class="cls-1" d="M15.59,5.7L9.2,0.41a2,2,0,0,0-2.4,0L0.41,5.7c-0.66.55-.5,1,0.36,1H15.24C16.09,6.69,16.25,6.25,15.59,5.7ZM8,5.41A1.21,1.21,0,1,1,9.21,4.19,1.21,1.21,0,0,1,8,5.41Z" transform="translate(0 0)"/><path class="cls-1" d="M10.53,13.44a0.31,0.31,0,0,0,.31-0.31V7.76a0.31,0.31,0,0,0-.31-0.31H9.34A0.31,0.31,0,0,0,9,7.76v5.36a0.31,0.31,0,0,0,.31.31h1.2Z" transform="translate(0 0)"/></g></svg>