<?xml version="1.0" encoding="utf-8"?>
<!-- Generator: Adobe Illustrator 16.0.0, SVG Export Plug-In . SVG Version: 6.00 Build 0)  -->
<!DOCTYPE svg PUBLIC "-//W3C//DTD SVG 1.1//EN" "http://www.w3.org/Graphics/SVG/1.1/DTD/svg11.dtd">
<svg version="1.1" id="Layer_1" xmlns="http://www.w3.org/2000/svg" xmlns:xlink="http://www.w3.org/1999/xlink" x="0px" y="0px"
	 width="16px" height="15.394px" viewBox="248.344 240 16 15.394" enable-background="new 248.344 240 16 15.394"
	 xml:space="preserve">
<g id="meanicons_x5F_60">
	<g>
		<path d="M251.14,253.439c0.172,0,0.313-0.139,0.313-0.311v-5.364c0-0.171-0.141-0.311-0.313-0.311h-1.194
			c-0.174,0-0.313,0.14-0.313,0.311v5.364c0,0.172,0.139,0.311,0.313,0.311H251.14L251.14,253.439z"/>
		<path d="M263.843,253.962h-14.998c-0.171,0-0.312,0.14-0.312,0.312v0.809c0,0.173,0.141,0.312,0.312,0.312h14.998
			c0.173,0,0.312-0.139,0.312-0.312v-0.809C264.155,254.102,264.016,253.962,263.843,253.962z"/>
		<path d="M255.01,253.439c0.171,0,0.311-0.139,0.311-0.311v-5.364c0-0.171-0.14-0.311-0.311-0.311h-1.197
			c-0.171,0-0.31,0.14-0.31,0.311v5.364c0,0.172,0.139,0.311,0.31,0.311H255.01L255.01,253.439z"/>
		<path d="M262.745,253.439c0.171,0,0.312-0.139,0.312-0.311v-5.364c0-0.171-0.141-0.311-0.312-0.311h-1.198
			c-0.171,0-0.311,0.14-0.311,0.311v5.364c0,0.172,0.14,0.311,0.311,0.311H262.745L262.745,253.439z"/>
		<path d="M263.938,245.7l-6.394-5.292c-0.66-0.545-1.74-0.545-2.4,0l-6.392,5.292c-0.662,0.548-0.5,0.994,0.358,0.994h14.471
			C264.437,246.694,264.598,246.249,263.938,245.7z M256.344,245.407c-0.67,0-1.214-0.544-1.214-1.215s0.543-1.213,1.214-1.213
			c0.672,0,1.214,0.542,1.214,1.213S257.016,245.407,256.344,245.407z"/>
		<path d="M258.876,253.439c0.173,0,0.313-0.139,0.313-0.311v-5.364c0-0.171-0.14-0.311-0.313-0.311h-1.195
			c-0.173,0-0.313,0.14-0.313,0.311v5.364c0,0.172,0.14,0.311,0.313,0.311H258.876L258.876,253.439z"/>
	</g>
</g>
<g id="Layer_1_1_">
</g>
</svg>
