<?xml version="1.0" encoding="utf-8"?>
<!-- Generator: Adobe Illustrator 16.0.0, SVG Export Plug-In . SVG Version: 6.00 Build 0)  -->
<!DOCTYPE svg PUBLIC "-//W3C//DTD SVG 1.1//EN" "http://www.w3.org/Graphics/SVG/1.1/DTD/svg11.dtd">
<svg version="1.1" id="Layer_1" xmlns="http://www.w3.org/2000/svg" xmlns:xlink="http://www.w3.org/1999/xlink" x="0px" y="0px"
	 width="19.5px" height="16.499px" viewBox="0 0 19.5 16.499" enable-background="new 0 0 19.5 16.499" xml:space="preserve">
<g>
	<path fill="#8AC641" d="M19.5,8.25c0,0.375-0.293,0.703-0.668,0.75L6.598,10.43c0.059,0.27,0.152,0.539,0.152,0.82
		c0,0.27-0.164,0.516-0.281,0.75H17.25c0.41,0,0.75,0.34,0.75,0.75s-0.34,0.75-0.75,0.75h-12c-0.41,0-0.75-0.34-0.75-0.75
		c0-0.363,0.527-1.242,0.715-1.605L3.141,1.5H0.75C0.34,1.5,0,1.16,0,0.75S0.34,0,0.75,0h3c0.785,0,0.809,0.938,0.926,1.5H18.75
		c0.41,0,0.75,0.34,0.75,0.75V8.25z M6,16.499c-0.82,0-1.5-0.68-1.5-1.499c0-0.82,0.68-1.5,1.5-1.5s1.5,0.68,1.5,1.5
		C7.5,15.819,6.82,16.499,6,16.499z M16.5,16.499c-0.82,0-1.5-0.68-1.5-1.499c0-0.82,0.68-1.5,1.5-1.5S18,14.18,18,15
		C18,15.819,17.32,16.499,16.5,16.499z"/>
</g>
</svg>
