<svg id="Layer_1" data-name="Layer 1" xmlns="http://www.w3.org/2000/svg" viewBox="0 0 19.5 16.5"><defs><style>.cls-1{fill:#fff;}</style></defs><title>cart_white</title><path class="cls-1" d="M19.5,8.25a0.77,0.77,0,0,1-.67.75L6.6,10.43a3.87,3.87,0,0,1,.15.82,1.77,1.77,0,0,1-.28.75H17.25a0.75,0.75,0,0,1,0,1.5h-12a0.76,0.76,0,0,1-.75-0.75,6,6,0,0,1,.72-1.6L3.14,1.5H0.75A0.76,0.76,0,0,1,0,.75,0.76,0.76,0,0,1,.75,0h3c0.78,0,.81.94,0.93,1.5H18.75a0.76,0.76,0,0,1,.75.75v6ZM6,16.5A1.5,1.5,0,1,1,7.5,15,1.51,1.51,0,0,1,6,16.5Zm10.5,0A1.5,1.5,0,1,1,18,15,1.51,1.51,0,0,1,16.5,16.5Z"/></svg>