<?xml version="1.0" encoding="utf-8"?>
<!-- Generator: Adobe Illustrator 16.0.0, SVG Export Plug-In . SVG Version: 6.00 Build 0)  -->
<!DOCTYPE svg PUBLIC "-//W3C//DTD SVG 1.1//EN" "http://www.w3.org/Graphics/SVG/1.1/DTD/svg11.dtd">
<svg version="1.1" id="Layer_1" xmlns="http://www.w3.org/2000/svg" xmlns:xlink="http://www.w3.org/1999/xlink" x="0px" y="0px"
	 width="12.109px" height="9.281px" viewBox="0 0 12.109 9.281" enable-background="new 0 0 12.109 9.281" xml:space="preserve">
<g>
	<path fill="#FFFFFF" d="M11.891,2.344L6.234,8L5.172,9.063C5.031,9.203,4.836,9.281,4.641,9.281S4.25,9.203,4.109,9.063L3.047,8
		L0.219,5.172C0.078,5.031,0,4.836,0,4.641S0.078,4.25,0.219,4.109l1.063-1.063c0.141-0.141,0.336-0.219,0.531-0.219
		s0.391,0.078,0.531,0.219l2.297,2.305l5.125-5.133C9.906,0.078,10.102,0,10.297,0s0.391,0.078,0.531,0.219l1.063,1.063
		c0.141,0.141,0.219,0.336,0.219,0.531S12.031,2.203,11.891,2.344z"/>
</g>
</svg>
