<?xml version="1.0" encoding="utf-8"?>
<!-- Generator: Adobe Illustrator 16.0.0, SVG Export Plug-In . SVG Version: 6.00 Build 0)  -->
<!DOCTYPE svg PUBLIC "-//W3C//DTD SVG 1.1//EN" "http://www.w3.org/Graphics/SVG/1.1/DTD/svg11.dtd">
<svg version="1.1" id="Layer_1" xmlns="http://www.w3.org/2000/svg" xmlns:xlink="http://www.w3.org/1999/xlink" x="0px" y="0px"
	 width="14px" height="12.001px" viewBox="0 0 14 12.001" enable-background="new 0 0 14 12.001" xml:space="preserve">
<g>
	<path fill="#cecfd1" d="M7,10c-0.383,0-0.766-0.023-1.133-0.063c-1.023,0.906-2.242,1.547-3.594,1.891
		C1.992,11.906,1.688,11.961,1.383,12c-0.172,0.016-0.336-0.109-0.375-0.297c0-0.008,0-0.008,0-0.008
		c-0.039-0.195,0.094-0.313,0.211-0.453c0.492-0.555,1.055-1.023,1.422-2.328C1.031,8,0,6.586,0,5c0-2.758,3.133-5,7-5s7,2.234,7,5
		S10.867,10,7,10z"/>
</g>
</svg>
