<?xml version="1.0" encoding="utf-8"?>
<!-- Generator: Adobe Illustrator 16.0.0, SVG Export Plug-In . SVG Version: 6.00 Build 0)  -->
<!DOCTYPE svg PUBLIC "-//W3C//DTD SVG 1.1//EN" "http://www.w3.org/Graphics/SVG/1.1/DTD/svg11.dtd">
<svg version="1.1" id="Layer_1" xmlns="http://www.w3.org/2000/svg" xmlns:xlink="http://www.w3.org/1999/xlink" x="0px" y="0px"
	 width="13.922px" height="13.922px" viewBox="0 0 13.922 13.922" enable-background="new 0 0 13.922 13.922" xml:space="preserve">
<g>
	<path fill="#CECED0" d="M13.594,12L12,13.594c-0.211,0.211-0.504,0.328-0.797,0.328s-0.586-0.117-0.797-0.328l-3.445-3.445
		l-3.445,3.445c-0.211,0.211-0.504,0.328-0.797,0.328s-0.586-0.117-0.797-0.328L0.328,12C0.117,11.789,0,11.496,0,11.203
		s0.117-0.586,0.328-0.797l3.445-3.445L0.328,3.516C0.117,3.305,0,3.012,0,2.719s0.117-0.586,0.328-0.797l1.594-1.594
		C2.133,0.117,2.426,0,2.719,0s0.586,0.117,0.797,0.328l3.445,3.445l3.445-3.445C10.617,0.117,10.91,0,11.203,0
		S11.789,0.117,12,0.328l1.594,1.594c0.211,0.211,0.328,0.504,0.328,0.797s-0.117,0.586-0.328,0.797l-3.445,3.445l3.445,3.445
		c0.211,0.211,0.328,0.504,0.328,0.797S13.805,11.789,13.594,12z"/>
</g>
</svg>
