<?xml version="1.0" encoding="utf-8"?>
<!-- Generator: Adobe Illustrator 16.0.0, SVG Export Plug-In . SVG Version: 6.00 Build 0)  -->
<!DOCTYPE svg PUBLIC "-//W3C//DTD SVG 1.1//EN" "http://www.w3.org/Graphics/SVG/1.1/DTD/svg11.dtd">
<svg version="1.1" id="Layer_1" xmlns="http://www.w3.org/2000/svg" xmlns:xlink="http://www.w3.org/1999/xlink" x="0px" y="0px"
	 width="60.508px" height="36.902px" viewBox="0 0 60.508 36.902" enable-background="new 0 0 60.508 36.902" xml:space="preserve">
<g>
	<path fill="#A1A1A1" d="M10.609,12.156V6.586c0-0.828-0.162-1.434-0.484-1.813c-0.323-0.38-0.818-0.569-1.484-0.569
		c-0.87,0-1.513,0.238-1.93,0.719C6.294,5.401,6.086,6.153,6.086,7.18v4.977H5.297V6.352c0-1.433-0.656-2.147-1.969-2.147
		c-0.891,0-1.539,0.259-1.945,0.776c-0.406,0.519-0.61,1.348-0.61,2.488v4.688H0V3.664h0.641l0.164,1.164h0.047
		c0.234-0.423,0.567-0.749,1-0.98C2.284,3.616,2.76,3.5,3.281,3.5c1.338,0,2.198,0.503,2.578,1.508H5.89
		c0.276-0.484,0.647-0.856,1.113-1.117C7.47,3.63,8,3.5,8.594,3.5c0.927,0,1.622,0.247,2.086,0.742
		c0.463,0.494,0.695,1.28,0.695,2.358v5.555H10.609z"/>
	<path fill="#A1A1A1" d="M19.281,12.156l-0.195-1.344h-0.063c-0.427,0.547-0.866,0.935-1.316,1.16
		c-0.451,0.227-0.983,0.34-1.598,0.34c-0.833,0-1.482-0.214-1.945-0.641c-0.464-0.427-0.695-1.02-0.695-1.773
		c0-0.828,0.345-1.472,1.035-1.93s1.688-0.7,2.996-0.727l1.617-0.048V6.633c0-0.808-0.164-1.417-0.492-1.828
		s-0.857-0.617-1.586-0.617c-0.787,0-1.602,0.219-2.445,0.656l-0.289-0.672c0.932-0.438,1.854-0.656,2.766-0.656
		c0.932,0,1.629,0.242,2.09,0.728c0.461,0.484,0.691,1.238,0.691,2.266v5.647L19.281,12.156L19.281,12.156z M16.156,11.609
		c0.906,0,1.621-0.259,2.145-0.776c0.524-0.519,0.785-1.238,0.785-2.16V7.836l-1.484,0.063c-1.193,0.059-2.043,0.243-2.551,0.56
		c-0.508,0.315-0.762,0.806-0.762,1.473c0,0.531,0.163,0.944,0.488,1.238C15.103,11.462,15.563,11.609,16.156,11.609z"/>
	<path fill="#A1A1A1" d="M25.711,3.5c0.614,0,1.146,0.111,1.594,0.336c0.448,0.224,0.849,0.605,1.203,1.147h0.047
		c-0.031-0.655-0.047-1.3-0.047-1.93V0h0.766v12.155h-0.508l-0.195-1.297h-0.063c-0.646,0.97-1.573,1.453-2.781,1.453
		c-1.172,0-2.068-0.364-2.688-1.094s-0.93-1.792-0.93-3.188c0-1.469,0.307-2.591,0.922-3.366C23.646,3.888,24.539,3.5,25.711,3.5z
		 M25.711,4.203c-0.927,0-1.624,0.324-2.09,0.977c-0.466,0.651-0.699,1.597-0.699,2.836c0,2.406,0.935,3.609,2.805,3.609
		c0.958,0,1.661-0.278,2.109-0.836c0.448-0.559,0.672-1.478,0.672-2.759V7.898c0-1.313-0.22-2.257-0.66-2.832
		C27.407,4.491,26.695,4.203,25.711,4.203z"/>
	<path fill="#A1A1A1" d="M35.555,12.313c-1.234,0-2.197-0.38-2.887-1.141s-1.035-1.825-1.035-3.195c0-1.354,0.333-2.438,1-3.254
		C33.299,3.906,34.198,3.5,35.328,3.5c1,0,1.789,0.349,2.367,1.047s0.867,1.646,0.867,2.844v0.625h-6.117
		c0.01,1.167,0.281,2.058,0.816,2.672c0.533,0.614,1.297,0.922,2.293,0.922c0.483,0,0.909-0.033,1.276-0.102
		s0.832-0.214,1.396-0.438v0.703c-0.479,0.208-0.922,0.352-1.328,0.426C36.492,12.274,36.044,12.313,35.555,12.313z M35.328,4.188
		c-0.818,0-1.475,0.271-1.969,0.81c-0.496,0.539-0.784,1.315-0.867,2.332h5.25c0-0.984-0.215-1.754-0.641-2.31
		C36.674,4.465,36.083,4.188,35.328,4.188z"/>
	<path fill="#A1A1A1" d="M48.648,3.5c1.188,0,2.082,0.374,2.684,1.121s0.902,1.84,0.902,3.276c0,1.411-0.316,2.5-0.949,3.267
		c-0.633,0.766-1.521,1.147-2.668,1.147c-0.604,0-1.148-0.125-1.633-0.375c-0.485-0.25-0.867-0.604-1.148-1.063h-0.07l-0.219,1.28
		h-0.484V0h0.773v3.055c0,0.458-0.011,0.88-0.031,1.266l-0.022,0.664h0.055c0.323-0.511,0.712-0.886,1.168-1.125
		C47.459,3.62,48.008,3.5,48.648,3.5z M48.633,4.203c-1,0-1.716,0.285-2.148,0.858s-0.647,1.52-0.647,2.836v0.133
		c0,1.281,0.226,2.2,0.677,2.759c0.449,0.558,1.151,0.836,2.104,0.836c0.927,0,1.625-0.324,2.094-0.974
		c0.47-0.648,0.703-1.57,0.703-2.77C51.414,5.43,50.486,4.203,48.633,4.203z"/>
	<path fill="#A1A1A1" d="M53.164,3.664h0.797l1.797,4.766c0.547,1.464,0.893,2.45,1.039,2.961h0.047
		c0.219-0.672,0.575-1.675,1.07-3.008l1.797-4.719h0.797l-3.805,9.866c-0.309,0.803-0.564,1.345-0.773,1.625
		c-0.207,0.281-0.451,0.492-0.729,0.634C54.92,15.93,54.583,16,54.188,16c-0.297,0-0.627-0.056-0.992-0.164v-0.672
		c0.303,0.083,0.628,0.125,0.978,0.125c0.267,0,0.5-0.063,0.703-0.188s0.388-0.319,0.551-0.582c0.164-0.263,0.354-0.68,0.57-1.25
		s0.354-0.94,0.418-1.113L53.164,3.664z"/>
</g>
<g>
	<g>
		<path fill="#A1A1A1" d="M1.794,22.694h4.075v-3.271H1.794V22.694L1.794,22.694z M0.186,36.636h7.292v-3.003H5.922V24.25H0.078
			v3.002H1.74v6.381H0.186V36.636L0.186,36.636z"/>
		<path fill="#A1A1A1" d="M10.158,32.078c0,4.183,3.807,4.665,5.792,4.665c0.375,0,0.643,0,0.804,0l0.322-0.055v-3.378h-0.161
			c-0.107,0-0.214,0-0.429,0c-0.805,0-2.199-0.215-2.199-1.716v-4.397h2.574V24.25h-2.574v-3.325h-4.021v3.325H8.443v3.002h1.662
			v4.826H10.158z"/>
		<path fill="#A1A1A1" d="M19.328,32.078c0,4.183,2.359,4.665,4.558,4.665c0.375,0,0.643,0,0.912,0l0.375-0.055v-3.271h-0.161
			c-0.107,0-0.214,0-0.375,0c-0.912,0-1.18-0.431-1.18-1.609V19.424h-5.791v3.003h1.663L19.328,32.078L19.328,32.078z"/>
		<path fill="#A1A1A1" d="M26.459,30.47c0,3.86,3.11,6.434,7.023,6.434c3.916,0,7.024-2.572,7.024-6.434
			c0-3.914-3.108-6.488-7.077-6.488C29.623,23.981,26.459,26.556,26.459,30.47L26.459,30.47z M30.641,30.47
			c0-1.877,1.287-3.057,2.789-3.057c1.5,0,2.787,1.18,2.787,3.057c0,1.876-1.287,3.003-2.787,3.003
			C31.98,33.473,30.641,32.346,30.641,30.47L30.641,30.47z"/>
		<path fill="#A1A1A1" d="M42.116,36.636h7.561v-3.003H47.8v-6.381h2.574V24.25H47.8v-0.59c0-1.182,1.181-1.182,1.771-1.182
			c0.375,0,0.59,0,0.75,0l0.215,0.056v-3.271l-0.43-0.054c-0.16-0.054-0.481-0.054-0.965-0.054c-1.93,0-5.469,0.535-5.469,4.61
			v0.483H42.01v3.002h1.662v6.381h-1.555L42.116,36.636L42.116,36.636z"/>
		<path fill="#A1A1A1" d="M53.161,32.078c0,4.183,3.807,4.665,5.791,4.665c0.375,0,0.644,0,0.804,0l0.322-0.055v-3.378h-0.161
			c-0.106,0-0.214,0-0.429,0c-0.805,0-2.198-0.215-2.198-1.716v-4.397h2.573V24.25H57.29v-3.325H53.27v3.325h-1.824v3.002h1.717
			L53.161,32.078L53.161,32.078z"/>
	</g>
</g>
</svg>
