<?xml version="1.0" encoding="utf-8"?>
<!-- Generator: Adobe Illustrator 16.0.0, SVG Export Plug-In . SVG Version: 6.00 Build 0)  -->
<!DOCTYPE svg PUBLIC "-//W3C//DTD SVG 1.1//EN" "http://www.w3.org/Graphics/SVG/1.1/DTD/svg11.dtd">
<svg version="1.1" id="Layer_1" xmlns="http://www.w3.org/2000/svg" xmlns:xlink="http://www.w3.org/1999/xlink" x="0px" y="0px"
	 width="8.906px" height="13.358px" viewBox="0 0 8.906 13.358" enable-background="new 0 0 8.906 13.358" xml:space="preserve">
<g>
	<path fill="#242933" d="M8.619,6.01l-3.166,6.731c-0.183,0.383-0.582,0.617-1,0.617s-0.817-0.234-0.991-0.617L0.287,6.01
		C0.061,5.532,0,4.984,0,4.453C0,1.992,1.992,0,4.453,0s4.453,1.992,4.453,4.453C8.906,4.984,8.846,5.532,8.619,6.01z M4.453,2.227
		c-1.227,0-2.227,1-2.227,2.227s1,2.227,2.227,2.227s2.227-1,2.227-2.227S5.68,2.227,4.453,2.227z"/>
</g>
</svg>
