<?xml version="1.0" encoding="utf-8"?>
<!-- Generator: Adobe Illustrator 16.0.0, SVG Export Plug-In . SVG Version: 6.00 Build 0)  -->
<!DOCTYPE svg PUBLIC "-//W3C//DTD SVG 1.1//EN" "http://www.w3.org/Graphics/SVG/1.1/DTD/svg11.dtd">
<svg version="1.1" id="Layer_1" xmlns="http://www.w3.org/2000/svg" xmlns:xlink="http://www.w3.org/1999/xlink" x="0px" y="0px"
	 width="16.5px" height="16.5px" viewBox="0 0 16.5 16.5" enable-background="new 0 0 16.5 16.5" xml:space="preserve">
<g>
	<path fill="#242933" d="M16.137,14.66c-0.246,0.574-0.902,0.949-1.43,1.242c-0.691,0.375-1.395,0.598-2.18,0.598
		c-1.09,0-2.074-0.445-3.07-0.809c-0.715-0.258-1.406-0.574-2.051-0.973c-1.992-1.23-4.395-3.633-5.625-5.625
		C1.383,8.449,1.066,7.758,0.809,7.043C0.445,6.047,0,5.063,0,3.973c0-0.785,0.223-1.488,0.598-2.18
		c0.293-0.527,0.668-1.184,1.242-1.43C2.227,0.188,3.047,0,3.469,0c0.082,0,0.164,0,0.246,0.035
		c0.246,0.082,0.504,0.656,0.621,0.891C4.711,1.594,5.074,2.273,5.461,2.93C5.648,3.234,6,3.609,6,3.973
		C6,4.688,3.879,5.73,3.879,6.363c0,0.316,0.293,0.727,0.457,1.008c1.184,2.133,2.66,3.609,4.793,4.792
		c0.281,0.164,0.691,0.457,1.008,0.457c0.633,0,1.676-2.121,2.391-2.121c0.363,0,0.738,0.352,1.043,0.539
		c0.656,0.387,1.336,0.75,2.004,1.125c0.234,0.117,0.809,0.375,0.891,0.621c0.035,0.082,0.035,0.164,0.035,0.246
		C16.5,13.453,16.313,14.273,16.137,14.66z"/>
</g>
</svg>
