<?xml version="1.0" encoding="utf-8"?>
<!-- Generator: Adobe Illustrator 16.0.0, SVG Export Plug-In . SVG Version: 6.00 Build 0)  -->
<!DOCTYPE svg PUBLIC "-//W3C//DTD SVG 1.1//EN" "http://www.w3.org/Graphics/SVG/1.1/DTD/svg11.dtd">
<svg version="1.1" id="Layer_1" xmlns="http://www.w3.org/2000/svg" xmlns:xlink="http://www.w3.org/1999/xlink" x="0px" y="0px"
	 width="12.246px" height="12.246px" viewBox="0 0 12.246 12.246" enable-background="new 0 0 12.246 12.246" xml:space="preserve">
<g>
	<path fill="#242933" d="M11.977,10.88c-0.183,0.426-0.67,0.705-1.062,0.922c-0.513,0.279-1.034,0.443-1.617,0.443
		c-0.81,0-1.54-0.33-2.279-0.6c-0.53-0.191-1.043-0.426-1.521-0.722C4.019,10.011,2.235,8.228,1.322,6.75
		C1.026,6.271,0.791,5.758,0.601,5.227C0.33,4.488,0,3.757,0,2.948c0-0.583,0.165-1.104,0.443-1.618
		C0.661,0.939,0.939,0.452,1.365,0.27C1.652,0.139,2.262,0,2.574,0c0.062,0,0.122,0,0.183,0.026
		c0.183,0.061,0.374,0.487,0.461,0.661c0.278,0.496,0.548,1,0.835,1.487c0.14,0.226,0.4,0.504,0.4,0.774
		c0,0.531-1.574,1.305-1.574,1.774c0,0.235,0.218,0.54,0.339,0.748C4.097,7.054,5.192,8.15,6.775,9.028
		C6.984,9.15,7.288,9.367,7.523,9.367c0.47,0,1.244-1.574,1.774-1.574c0.27,0,0.548,0.262,0.773,0.4
		c0.487,0.287,0.992,0.557,1.487,0.835c0.175,0.087,0.601,0.278,0.661,0.461c0.026,0.062,0.026,0.122,0.026,0.183
		C12.246,9.985,12.107,10.593,11.977,10.88z"/>
</g>
</svg>
