<?xml version="1.0" encoding="utf-8"?>
<!-- Generator: Adobe Illustrator 16.0.0, SVG Export Plug-In . SVG Version: 6.00 Build 0)  -->
<!DOCTYPE svg PUBLIC "-//W3C//DTD SVG 1.1//EN" "http://www.w3.org/Graphics/SVG/1.1/DTD/svg11.dtd">
<svg version="1.1" id="Layer_1" xmlns="http://www.w3.org/2000/svg" xmlns:xlink="http://www.w3.org/1999/xlink" x="0px" y="0px"
	 width="8.25px" height="8.25px" viewBox="0 0 8.25 8.25" enable-background="new 0 0 8.25 8.25" xml:space="preserve">
<g>
	<path fill="#C0C0C0" d="M8.25,4.688c0,0.311-0.252,0.563-0.563,0.563H5.25v2.438c0,0.311-0.252,0.563-0.563,0.563H3.563
		C3.252,8.25,3,7.998,3,7.688V5.25H0.563C0.252,5.25,0,4.998,0,4.688V3.563C0,3.252,0.252,3,0.563,3H3V0.563
		C3,0.252,3.252,0,3.563,0h1.125C4.998,0,5.25,0.252,5.25,0.563V3h2.438C7.998,3,8.25,3.252,8.25,3.563V4.688z"/>
</g>
</svg>
