<?xml version="1.0" encoding="utf-8"?>
<!-- Generator: Adobe Illustrator 16.0.0, SVG Export Plug-In . SVG Version: 6.00 Build 0)  -->
<!DOCTYPE svg PUBLIC "-//W3C//DTD SVG 1.1//EN" "http://www.w3.org/Graphics/SVG/1.1/DTD/svg11.dtd">
<svg version="1.1" id="Layer_1" xmlns="http://www.w3.org/2000/svg" xmlns:xlink="http://www.w3.org/1999/xlink" x="0px" y="0px"
	 width="13px" height="12px" viewBox="0 0 13 12" enable-background="new 0 0 13 12" xml:space="preserve">
<g>
	<path fill="#89C53F" d="M13,9.75C13,9.883,12.883,10,12.75,10H11v1.25c0,0.414-0.336,0.75-0.75,0.75h-7.5
		C2.336,12,2,11.664,2,11.25V10H0.25C0.117,10,0,9.883,0,9.75V6.5C0,5.68,0.68,5,1.5,5H2V0.75C2,0.336,2.336,0,2.75,0H8
		c0.414,0,0.984,0.234,1.281,0.531l1.188,1.188C10.766,2.016,11,2.586,11,3v2h0.5C12.32,5,13,5.68,13,6.5V9.75z M10,6V3H8.75
		C8.336,3,8,2.664,8,2.25V1H3v5H10z M10,11V9H3v2H10z M11.5,6C11.227,6,11,6.227,11,6.5S11.227,7,11.5,7S12,6.773,12,6.5
		S11.773,6,11.5,6z"/>
</g>
</svg>
