<?xml version="1.0" encoding="utf-8"?>
<!-- Generator: Adobe Illustrator 16.0.0, SVG Export Plug-In . SVG Version: 6.00 Build 0)  -->
<!DOCTYPE svg PUBLIC "-//W3C//DTD SVG 1.1//EN" "http://www.w3.org/Graphics/SVG/1.1/DTD/svg11.dtd">
<svg version="1.1" id="Layer_1" xmlns="http://www.w3.org/2000/svg" xmlns:xlink="http://www.w3.org/1999/xlink" x="0px" y="0px"
	 width="13.359px" height="13.359px" viewBox="0 0 13.359 13.359" enable-background="new 0 0 13.359 13.359" xml:space="preserve">
<g>
	<path fill="#242933" d="M6.68,13.359C2.992,13.359,0,10.367,0,6.68C0,2.992,2.992,0,6.68,0s6.68,2.992,6.68,6.68
		C13.359,10.367,10.367,13.359,6.68,13.359z M6.68,1.948c-2.609,0-4.731,2.122-4.731,4.731s2.122,4.731,4.731,4.731
		s4.731-2.122,4.731-4.731S9.289,1.948,6.68,1.948z M7.793,7.515c0,0.157-0.122,0.278-0.278,0.278H4.731
		c-0.156,0-0.278-0.121-0.278-0.278V6.958c0-0.157,0.122-0.278,0.278-0.278H6.68V3.618c0-0.157,0.122-0.278,0.278-0.278h0.557
		c0.156,0,0.278,0.122,0.278,0.278V7.515z"/>
</g>
</svg>
