<?xml version="1.0" encoding="utf-8"?>
<!-- Generator: Adobe Illustrator 16.0.0, SVG Export Plug-In . SVG Version: 6.00 Build 0)  -->
<!DOCTYPE svg PUBLIC "-//W3C//DTD SVG 1.1//EN" "http://www.w3.org/Graphics/SVG/1.1/DTD/svg11.dtd">
<svg version="1.1" id="Layer_1" xmlns="http://www.w3.org/2000/svg" xmlns:xlink="http://www.w3.org/1999/xlink" x="0px" y="0px"
	 width="42.633px" height="42.633px" viewBox="0 0 42.633 42.633" enable-background="new 0 0 42.633 42.633" xml:space="preserve">
<g>
	<path fill="#232832" d="M42.633,21.316c0,11.769-9.548,21.316-21.317,21.316S0,33.085,0,21.316S9.548,0,21.316,0
		S42.633,9.548,42.633,21.316z M22.565,10.131c-0.694-0.694-1.804-0.694-2.498,0L7.466,22.732c-0.694,0.693-0.694,1.804,0,2.497
		l2.831,2.832c0.694,0.693,1.804,0.693,2.498,0l8.521-8.521l8.521,8.521c0.694,0.693,1.804,0.693,2.498,0l2.831-2.832
		c0.694-0.693,0.694-1.804,0-2.497L22.565,10.131z"/>
</g>
</svg>
