<svg id="filtr" xmlns="http://www.w3.org/2000/svg" viewBox="0 0 20 20"><defs><style>.cls-1{fill:#f05a28;}</style></defs><title>menu-type-list-active</title><g id="Rounded_Rectangle_6" data-name="Rounded Rectangle 6"><path class="cls-1" d="M1178,295h8a2.56,2.56,0,0,0,0-5h-8A2.56,2.56,0,0,0,1178,295Zm-7.5-5a2.5,2.5,0,1,0,2.5,2.5A2.5,2.5,0,0,0,1170.5,290Zm0,7a3.05,3.05,0,1,0,2.5,3A2.78,2.78,0,0,0,1170.5,297Zm0,8a2.5,2.5,0,1,0,2.5,2.5A2.5,2.5,0,0,0,1170.5,305Zm15.5-7.5h-8a2.56,2.56,0,0,0,0,5h8A2.56,2.56,0,0,0,1186,297.5Zm0,7.5h-8a2.56,2.56,0,0,0,0,5h8A2.56,2.56,0,0,0,1186,305Z" transform="translate(-1168 -290)"/></g></svg>