<svg id="filtr" xmlns="http://www.w3.org/2000/svg" viewBox="0 0 20 20"><defs><style>.cls-1{fill:#f05a28;}</style></defs><title>menu-type-block-active</title><g id="Rounded_Rectangle_5" data-name="Rounded Rectangle 5"><path class="cls-1" d="M1124,290h-3a3,3,0,0,0-3,3v3a3,3,0,0,0,3,3h3a3,3,0,0,0,3-3v-3A3,3,0,0,0,1124,290Zm11,0h-3a3,3,0,0,0-3,3v3a3,3,0,0,0,3,3h3a3,3,0,0,0,3-3v-3A3,3,0,0,0,1135,290Zm-11,11h-3a3,3,0,0,0-3,3v3a3,3,0,0,0,3,3h3a3,3,0,0,0,3-3v-3A3,3,0,0,0,1124,301Zm11,0h-3a3,3,0,0,0-3,3v3a3,3,0,0,0,3,3h3a3,3,0,0,0,3-3v-3A3,3,0,0,0,1135,301Z" transform="translate(-1118 -290)"/></g></svg>