<?xml version="1.0" encoding="utf-8"?>
<!-- Generator: Adobe Illustrator 16.0.0, SVG Export Plug-In . SVG Version: 6.00 Build 0)  -->
<!DOCTYPE svg PUBLIC "-//W3C//DTD SVG 1.1//EN" "http://www.w3.org/Graphics/SVG/1.1/DTD/svg11.dtd">
<svg version="1.1" id="Layer_1" xmlns="http://www.w3.org/2000/svg" xmlns:xlink="http://www.w3.org/1999/xlink" x="0px" y="0px"
	 width="20px" height="20.013px" viewBox="60.865 117.516 20 20.013" enable-background="new 60.865 117.516 20 20.013"
	 xml:space="preserve">
<path d="M78.865,122.529h-14.4c-1.2,0-1.6-0.6-1.6-1l16-1.5v-1.5c0-0.6-0.6-1.1-1.2-1l-15.1,2.7c-1,0.2-1.7,1-1.7,2v13.3
	c0,1.1,0.9,2,2,2h16c1.101,0,2-0.9,2-2v-11C80.865,123.429,79.966,122.529,78.865,122.529z M77.365,131.529c-0.8,0-1.5-0.7-1.5-1.5
	s0.7-1.5,1.5-1.5s1.5,0.7,1.5,1.5S78.165,131.529,77.365,131.529z"/>
</svg>
