<?xml version="1.0" encoding="utf-8"?>
<!-- Generator: Adobe Illustrator 16.0.0, SVG Export Plug-In . SVG Version: 6.00 Build 0)  -->
<!DOCTYPE svg PUBLIC "-//W3C//DTD SVG 1.1//EN" "http://www.w3.org/Graphics/SVG/1.1/DTD/svg11.dtd">
<svg version="1.1"
	 id="svg2" xmlns:svg="http://www.w3.org/2000/svg" xmlns:sodipodi="http://sodipodi.sourceforge.net/DTD/sodipodi-0.dtd" xmlns:rdf="http://www.w3.org/1999/02/22-rdf-syntax-ns#" xmlns:inkscape="http://www.inkscape.org/namespaces/inkscape" xmlns:dc="http://purl.org/dc/elements/1.1/" xmlns:cc="http://creativecommons.org/ns#"
	 xmlns="http://www.w3.org/2000/svg" xmlns:xlink="http://www.w3.org/1999/xlink" x="0px" y="0px" width="16px" height="16.466px"
	 viewBox="7.667 7.763 16 16.466" enable-background="new 7.667 7.763 16 16.466" xml:space="preserve">
<script  id="script3301" xlink:href=""></script>
<script  id="script3299" xlink:href=""></script>
<path id="path3271" d="M7.667,15.997c0-4.545,3.694-8.233,8.243-8.233c1.474,0,2.861,0.388,4.059,1.066
	c0.198,0.111,0.234,0.381,0.074,0.542l-0.742,0.742c-0.135,0.134-0.352,0.134-0.485,0l-0.936-0.922l-1.528,1.525
	c-0.134,0.134-0.352,0.134-0.486,0l-1.011-1.012c-0.03-0.03-0.081-0.03-0.111,0.001l-2.666,2.66c-0.031,0.032-0.029,0.081,0,0.109
	l1.925,1.923c0.134,0.135,0.134,0.352-0.001,0.486l-0.689,0.688c-0.029,0.03-0.029,0.079,0,0.109l1.924,1.921
	c0.135,0.134,0.135,0.352,0.001,0.486l-0.566,0.565c-0.031,0.031-0.03,0.079-0.001,0.108l2.667,2.663c0.03,0.03,0.078,0.03,0.108,0
	l1.31-1.308c0.133-0.134,0.351-0.134,0.484,0l1.819,1.819c0.145,0.145,0.132,0.384-0.029,0.511c-1.406,1.115-3.186,1.781-5.12,1.781
	C11.361,24.229,7.667,20.542,7.667,15.997z M20.291,22.14l-1.294-1.294l-1.065,1.063c-0.297,0.3-0.782,0.3-1.079,0l-2.665-2.661
	c-0.3-0.298-0.299-0.781-0.001-1.079l0.324-0.322l-1.683-1.682c-0.296-0.297-0.296-0.779,0-1.077l0.448-0.448l-1.683-1.68
	c-0.298-0.299-0.296-0.779,0-1.079l2.667-2.664c0.299-0.295,0.779-0.295,1.078,0.001l0.771,0.77l1.285-1.284l0.109-0.071
	l-0.596-0.118c-0.327-0.043-0.659-0.066-0.998-0.066c-4.172,0-7.557,3.382-7.557,7.548s3.385,7.547,7.557,7.547
	c1.552,0,2.994-0.467,4.194-1.269L20.291,22.14z M19.059,9.386l0.159-0.16l-0.44-0.213l-0.142-0.048L19.059,9.386z"/>
<path id="path3273" d="M14.654,13.897l-1.308-1.31c-0.111-0.11-0.111-0.289,0-0.399l1.308-1.31c0.111-0.109,0.289-0.109,0.4,0
	l1.309,1.31c0.111,0.11,0.111,0.289,0,0.399l-1.309,1.31C14.943,14.007,14.765,14.007,14.654,13.897z"/>
<path id="path3275" d="M16.001,17.08l-1.31-1.309c-0.109-0.11-0.109-0.289,0-0.399l1.31-1.309c0.11-0.111,0.289-0.111,0.399,0
	l1.309,1.309c0.11,0.11,0.11,0.289,0,0.399L16.4,17.08C16.29,17.191,16.111,17.191,16.001,17.08z"/>
<path id="path3277" d="M17.348,20.263l-1.31-1.309c-0.11-0.109-0.11-0.289,0-0.399l1.31-1.309c0.109-0.111,0.289-0.111,0.397,0
	l1.311,1.309c0.11,0.11,0.11,0.29,0,0.399l-1.311,1.309C17.637,20.374,17.457,20.374,17.348,20.263z"/>
<path id="path3279" d="M17.707,12.696l-0.957-0.957c-0.08-0.082-0.08-0.212,0-0.292l0.957-0.957c0.08-0.081,0.211-0.081,0.292,0
	l0.956,0.957c0.081,0.081,0.081,0.211,0,0.292l-0.956,0.957C17.918,12.776,17.787,12.776,17.707,12.696z"/>
<path id="path3281" d="M18.932,15.388l-0.957-0.957c-0.08-0.081-0.08-0.211,0-0.292l0.957-0.957c0.08-0.081,0.211-0.081,0.292,0
	l0.956,0.957c0.08,0.081,0.08,0.211,0,0.292l-0.956,0.957C19.143,15.469,19.012,15.469,18.932,15.388z"/>
<path id="path3283" d="M20.155,18.327l-0.957-0.956c-0.081-0.081-0.081-0.212,0-0.294l0.957-0.956c0.08-0.081,0.211-0.081,0.292,0
	l0.957,0.956c0.08,0.082,0.08,0.213,0,0.294l-0.957,0.956C20.366,18.407,20.235,18.407,20.155,18.327z"/>
<path id="path3285" d="M21.379,21.143l-0.956-0.957c-0.081-0.081-0.081-0.211,0-0.292l0.956-0.957c0.081-0.08,0.212-0.08,0.292,0
	l0.956,0.957c0.081,0.081,0.081,0.211,0,0.292l-0.956,0.957C21.591,21.223,21.46,21.223,21.379,21.143z"/>
<path id="path3287" d="M20.323,11.613l-0.655-0.655c-0.055-0.055-0.055-0.145,0-0.201l0.655-0.654c0.055-0.056,0.145-0.056,0.199,0
	l0.654,0.654c0.056,0.056,0.056,0.146,0,0.201l-0.654,0.655C20.468,11.667,20.378,11.667,20.323,11.613z"/>
<path id="path3289" d="M21.548,14.428l-0.655-0.655c-0.055-0.055-0.055-0.144,0-0.199l0.655-0.655c0.055-0.054,0.145-0.054,0.199,0
	l0.655,0.655c0.054,0.055,0.054,0.145,0,0.199l-0.655,0.655C21.692,14.483,21.603,14.483,21.548,14.428z"/>
<path id="path3291" d="M22.771,17.121l-0.654-0.653c-0.056-0.056-0.056-0.145,0-0.2l0.654-0.655c0.056-0.055,0.144-0.055,0.2,0
	l0.653,0.655c0.057,0.056,0.057,0.144,0,0.2l-0.653,0.653C22.915,17.178,22.827,17.178,22.771,17.121z"/>
<polygon points="8.072,16.514 8.415,13.577 10.13,10.705 11.759,9.354 14.181,8.39 16.445,8.24 18.189,8.625 19.775,9.161 
	19.138,9.89 17.853,8.84 15.956,10.429 14.854,9.29 11.78,12.389 13.667,14.841 12.852,15.677 14.995,17.928 14.202,18.755 
	17.311,21.894 19.016,20.346 20.739,22.129 17.914,23.608 14.414,23.715 10.666,21.979 8.351,18.388 "/>
</svg>
