<?xml version="1.0" encoding="utf-8"?>
<!-- Generator: Adobe Illustrator 16.0.0, SVG Export Plug-In . SVG Version: 6.00 Build 0)  -->
<!DOCTYPE svg PUBLIC "-//W3C//DTD SVG 1.1//EN" "http://www.w3.org/Graphics/SVG/1.1/DTD/svg11.dtd">
<svg version="1.1" id="Layer_1" xmlns="http://www.w3.org/2000/svg" xmlns:xlink="http://www.w3.org/1999/xlink" x="0px" y="0px"
	 width="23.156px" height="28px" viewBox="0 0 23.156 28" enable-background="new 0 0 23.156 28" xml:space="preserve">
<g>
	<path fill="#242933" d="M22.75,25.406c-0.297,1.234-1.297,2.141-2.5,2.266C17.375,28,14.469,28,11.578,28s-5.797,0-8.672-0.328
		c-1.203-0.125-2.219-1.031-2.5-2.266C0,23.657,0,21.735,0,19.938c0-1.813,0.016-3.719,0.406-5.469
		c0.297-1.235,1.297-2.141,2.516-2.282c2.859-0.313,5.766-0.313,8.656-0.313s5.797,0,8.672,0.313c1.203,0.141,2.219,1.047,2.5,2.282
		c0.406,1.75,0.406,3.656,0.406,5.469C23.156,21.735,23.141,23.657,22.75,25.406z M6.609,16.047v-1.469H1.734v1.469h1.641v8.89
		h1.563v-8.89H6.609z M9.156,0L7.266,6.234v4.234H5.703V6.234C5.563,5.469,5.25,4.375,4.75,2.922C4.406,1.953,4.063,0.969,3.734,0
		h1.656L6.5,4.109L7.563,0H9.156z M10.828,24.937v-7.718H9.438v5.906c-0.313,0.438-0.609,0.656-0.891,0.656
		c-0.188,0-0.297-0.109-0.328-0.328c-0.016-0.047-0.016-0.219-0.016-0.547v-5.688H6.813v6.109c0,0.547,0.047,0.906,0.125,1.141
		c0.125,0.39,0.453,0.577,0.906,0.577c0.5,0,1.031-0.313,1.594-0.952v0.843H10.828z M13.344,7.938c0,0.828-0.141,1.453-0.438,1.844
		c-0.391,0.531-0.938,0.797-1.656,0.797c-0.703,0-1.25-0.266-1.641-0.797C9.313,9.375,9.172,8.766,9.172,7.938V5.203
		c0-0.828,0.141-1.438,0.438-1.828C10,2.844,10.547,2.578,11.25,2.578c0.719,0,1.266,0.266,1.656,0.797
		c0.297,0.391,0.438,1,0.438,1.828V7.938z M11.922,4.922c0-0.719-0.203-1.078-0.672-1.078c-0.453,0-0.672,0.359-0.672,1.078v3.281
		c0,0.719,0.219,1.094,0.672,1.094c0.469,0,0.672-0.375,0.672-1.094V4.922z M16.141,19.547c0-0.719-0.031-1.234-0.141-1.547
		c-0.172-0.578-0.563-0.875-1.109-0.875c-0.516,0-1,0.281-1.453,0.844v-3.391h-1.391v10.358h1.391v-0.749
		c0.469,0.577,0.953,0.858,1.453,0.858c0.547,0,0.938-0.297,1.109-0.858c0.109-0.328,0.141-0.844,0.141-1.563V19.547z M14.75,22.735
		c0,0.703-0.203,1.047-0.609,1.047c-0.234,0-0.469-0.109-0.703-0.344v-4.703c0.234-0.234,0.469-0.344,0.703-0.344
		c0.406,0,0.609,0.359,0.609,1.047V22.735z M18.578,10.469h-1.422V9.609c-0.563,0.656-1.094,0.969-1.609,0.969
		c-0.453,0-0.781-0.188-0.922-0.578C14.547,9.766,14.5,9.391,14.5,8.828V2.672h1.422v5.734c0,0.328,0,0.516,0.016,0.547
		c0.031,0.219,0.141,0.344,0.328,0.344c0.281,0,0.578-0.219,0.891-0.672V2.672h1.422V10.469z M21.422,22.266H20
		c0,0.563-0.016,0.875-0.031,0.953c-0.078,0.375-0.281,0.563-0.625,0.563c-0.484,0-0.719-0.359-0.719-1.078v-1.359h2.797v-1.609
		c0-0.828-0.141-1.422-0.422-1.813c-0.406-0.531-0.953-0.797-1.656-0.797c-0.719,0-1.266,0.266-1.672,0.797
		c-0.297,0.391-0.438,0.984-0.438,1.813v2.703c0,0.828,0.156,1.438,0.453,1.813c0.406,0.53,0.953,0.796,1.688,0.796
		s1.313-0.281,1.688-0.827c0.172-0.25,0.297-0.531,0.328-0.844c0.031-0.141,0.031-0.453,0.031-0.906V22.266z M20.031,20.172h-1.406
		v-0.719c0-0.703,0.234-1.063,0.703-1.063s0.703,0.359,0.703,1.063V20.172z"/>
</g>
</svg>
