<?xml version="1.0" encoding="utf-8"?>
<!-- Generator: Adobe Illustrator 19.2.1, SVG Export Plug-In . SVG Version: 6.00 Build 0)  -->
<svg version="1.1" id="Layer_1" xmlns="http://www.w3.org/2000/svg" xmlns:xlink="http://www.w3.org/1999/xlink" x="0px" y="0px"
	 viewBox="0 0 58.5 8.2" style="enable-background:new 0 0 58.5 8.2;" xml:space="preserve">
<style type="text/css">
	.st0{fill-rule:evenodd;clip-rule:evenodd;fill:#F15B29;}
	.st1{fill:#F15B29;}
	.st2{font-family:'ArialMT';}
	.st3{font-size:1.9473px;}
</style>
<path class="st0" d="M8.3,0.5c2.6,0,4.7,1.7,4.7,3.9c0,2.1-2.1,3.9-4.7,3.9c-2.6,0-4.7-1.7-4.7-3.9C3.6,2.2,5.7,0.5,8.3,0.5L8.3,0.5
	C3.7,0.5,0,2.2,0,4.3c0,2.1,3.7,3.9,8.3,3.9c4.6,0,8.3-1.7,8.3-3.9C16.6,2.2,12.9,0.5,8.3,0.5L8.3,0.5z M8.3,0.5
	c0.8,0,1.5,1.8,1.5,3.9c0,2-0.7,3.8-1.5,3.8c-0.8,0-1.5-1.8-1.5-3.8C6.8,2.2,7.5,0.5,8.3,0.5L8.3,0.5z"/>
<path class="st0" d="M52.5,5.9c0,0.1,0,0.3,0,0.4c0,0.1,0.1,0.1,0.1,0.1c0,0,0.2,0,0.3,0c0.3,0,0.5,0,0.6-0.1
	C53.7,6.3,53.9,6.1,54,6c0.1-0.1,0.2-0.4,0.2-0.6c0-0.3-0.1-0.5-0.2-0.7c-0.1-0.2-0.4-0.4-0.7-0.6l-0.8,0.3V5.9L52.5,5.9z M52.5,3.8
	c0.3-0.1,0.6-0.2,0.9-0.4c0.3-0.2,0.4-0.4,0.4-0.7c0-0.1-0.1-0.3-0.2-0.4c-0.1-0.1-0.3-0.1-0.5-0.1c-0.3,0-0.4,0.1-0.5,0.1
	c0,0-0.1,0.2-0.1,0.4V3.8L52.5,3.8z M50.8,2.7c0-0.3,0-0.5-0.1-0.6c-0.1-0.1-0.2-0.2-0.4-0.2V1.7H54c0.4,0,0.8,0.1,1,0.1
	c0.3,0.1,0.4,0.3,0.4,0.7c0,0.2-0.1,0.4-0.2,0.6c-0.1,0.1-0.3,0.3-0.5,0.4c-0.2,0.1-0.4,0.2-0.6,0.3c0.3,0,0.6,0.2,0.9,0.3
	c0.3,0.1,0.5,0.4,0.6,0.6c0.2,0.2,0.3,0.5,0.3,0.9c0,0.3-0.1,0.5-0.2,0.7c-0.1,0.2-0.4,0.4-0.6,0.5c-0.2,0.1-0.4,0.2-0.7,0.2
	c-0.3,0-0.6,0-0.9,0h-3.1V6.8c0.1,0,0.3-0.1,0.3-0.2c0.1-0.1,0.1-0.3,0.1-0.6V2.7L50.8,2.7z"/>
<path class="st0" d="M47.8,5.7C47.9,5.5,48,5.1,48,4.6c0-0.6-0.1-1.1-0.2-1.5c-0.1-0.3-0.3-0.5-0.4-0.7c-0.2-0.2-0.4-0.3-0.7-0.3
	c-0.2,0-0.3,0.1-0.5,0.2c-0.1,0.1-0.3,0.3-0.4,0.5c-0.1,0.3-0.2,0.7-0.2,1.1c0,0.6,0.1,1.1,0.3,1.5C46,5.8,46.1,6,46.3,6.1
	c0.2,0.2,0.4,0.3,0.6,0.3c0.2,0,0.4-0.1,0.5-0.2C47.6,6.1,47.8,5.9,47.8,5.7L47.8,5.7z M44.7,6.4c-0.2-0.1-0.4-0.4-0.5-0.6
	c-0.1-0.2-0.2-0.5-0.3-0.7c-0.1-0.2-0.1-0.5-0.1-0.8c0-0.6,0.1-1.1,0.4-1.5c0.3-0.4,0.6-0.8,1.1-1c0.4-0.2,1-0.4,1.5-0.4
	c0.4,0,0.8,0.1,1.1,0.2c0.4,0.1,0.7,0.3,1,0.5c0.2,0.2,0.3,0.4,0.5,0.6c0.1,0.2,0.3,0.5,0.3,0.7c0.1,0.2,0.1,0.5,0.1,0.8
	c0,0.2,0,0.4,0,0.5c0,0.2-0.1,0.4-0.1,0.6c-0.1,0.2-0.2,0.4-0.3,0.5c-0.1,0.1-0.2,0.3-0.4,0.4c-0.3,0.2-0.6,0.4-1,0.6
	c-0.4,0.1-0.8,0.2-1.1,0.2c-0.4,0-0.8-0.1-1.2-0.2C45.3,6.8,44.9,6.6,44.7,6.4L44.7,6.4L44.7,6.4z"/>
<path class="st0" d="M40.5,4c0.3-0.1,0.7-0.2,0.9-0.4c0.3-0.2,0.4-0.4,0.4-0.7c0-0.2-0.1-0.4-0.2-0.5c-0.1-0.1-0.4-0.2-0.6-0.2
	c-0.1,0-0.3,0-0.3,0.1c-0.1,0-0.1,0.1-0.1,0.2c0,0,0,0.2,0,0.3v0.2V4L40.5,4z M38.8,2.7c0-0.2,0-0.5-0.1-0.6
	c-0.1-0.1-0.2-0.2-0.4-0.2V1.7h3.3c0.2,0,0.5,0,0.7,0c0.2,0,0.4,0,0.5,0.1c0.2,0.1,0.3,0.1,0.4,0.3c0.1,0.1,0.2,0.4,0.2,0.5
	c0,0.4-0.2,0.7-0.5,1c-0.4,0.3-0.7,0.5-1.1,0.6c-0.4,0.1-0.9,0.3-1.4,0.4V6c0,0.3,0,0.5,0.1,0.6c0.1,0.1,0.2,0.2,0.4,0.2V7h-2.6V6.8
	c0.1,0,0.3-0.1,0.3-0.2c0.1-0.1,0.1-0.3,0.1-0.6V2.7L38.8,2.7z"/>
<path class="st0" d="M36,5.9c0,0.3,0.1,0.5,0.1,0.6c0.1,0.1,0.3,0.2,0.5,0.2V7h-3V6.8c0.2,0,0.3,0,0.4-0.1c0.1,0,0.2-0.2,0.2-0.3
	c0.1-0.1,0.1-0.3,0.1-0.5V2.3c-0.4,0-0.7,0.1-1,0.3C33.2,2.8,33,3,32.9,3.4l-0.2,0l0.4-1.9c0.1,0.1,0.2,0.1,0.4,0.1
	c0.1,0,0.1,0,0.1,0c0,0,0.1,0,0.1,0h2.9c0,0,0.1,0,0.1,0c0,0,0.1,0,0.1,0c0.3,0,0.5,0,0.5-0.1l0.4,1.9l-0.2,0
	C37.4,3,37.3,2.8,37,2.6c-0.3-0.2-0.6-0.3-1-0.3V5.9L36,5.9z"/>
<path class="st0" d="M31.8,7.2C31.8,7.1,31.7,7,31.7,7c-0.1,0-0.1,0-0.2,0l-1.2,0.1C29.8,7.1,29.3,7,29,7c-0.4-0.1-0.8-0.3-1.1-0.5
	c-0.3-0.3-0.6-0.6-0.8-0.9c-0.2-0.4-0.2-0.8-0.2-1.3c0-0.5,0.1-1,0.4-1.4c0.2-0.4,0.6-0.7,1.1-0.9c0.4-0.2,1-0.3,1.5-0.3
	c0.3,0,0.7,0.1,1.2,0.1c0.1,0,0.2,0,0.3,0c0.2,0,0.3-0.1,0.4-0.2l0.5,2.3L32,3.8c-0.1-0.3-0.3-0.5-0.4-0.8c-0.2-0.3-0.4-0.4-0.6-0.6
	c-0.3-0.1-0.5-0.2-0.8-0.2c-0.3,0-0.6,0.1-0.8,0.3c-0.2,0.2-0.4,0.4-0.5,0.7c-0.1,0.3-0.2,0.6-0.2,0.9c0,0.3,0.1,0.6,0.1,0.8
	c0.1,0.3,0.2,0.6,0.4,0.7C29.2,5.8,29.4,6,29.5,6c0.2,0.1,0.4,0.2,0.5,0.3c0.2,0.1,0.4,0.1,0.6,0.1c0.2,0,0.5,0,0.6-0.1
	c0.2-0.1,0.4-0.2,0.6-0.4c0.1-0.2,0.3-0.4,0.4-0.6l0.2,0.1L31.8,7.2L31.8,7.2z"/>
<path class="st0" d="M24.1,5.7c0.1-0.2,0.2-0.6,0.2-1.1c0-0.6-0.1-1.1-0.2-1.5c-0.1-0.3-0.2-0.5-0.4-0.7c-0.2-0.2-0.4-0.3-0.6-0.3
	c-0.2,0-0.4,0.1-0.5,0.2c-0.1,0.1-0.3,0.3-0.4,0.5C22,3.2,21.9,3.5,21.9,4c0,0.6,0.1,1.1,0.2,1.5c0.1,0.2,0.2,0.5,0.4,0.6
	c0.2,0.2,0.4,0.3,0.6,0.3s0.4-0.1,0.5-0.2C23.8,6.1,24,5.9,24.1,5.7L24.1,5.7z M20.9,6.4c-0.2-0.1-0.4-0.4-0.5-0.6
	c-0.1-0.2-0.2-0.5-0.3-0.7c0-0.2-0.1-0.5-0.1-0.8c0-0.6,0.1-1.1,0.4-1.5c0.2-0.4,0.6-0.8,1.1-1c0.4-0.2,1-0.4,1.5-0.4
	c0.4,0,0.8,0.1,1.1,0.2c0.4,0.1,0.7,0.3,1,0.5c0.2,0.2,0.3,0.4,0.5,0.6c0.1,0.2,0.3,0.5,0.3,0.7C26,3.8,26,4.1,26,4.4
	c0,0.2,0,0.4-0.1,0.5c0,0.2-0.1,0.4-0.1,0.6c-0.1,0.2-0.2,0.4-0.3,0.5c-0.1,0.1-0.2,0.3-0.3,0.4c-0.3,0.2-0.6,0.4-1,0.6
	c-0.4,0.1-0.8,0.2-1.1,0.2c-0.4,0-0.8-0.1-1.2-0.2C21.5,6.8,21.2,6.6,20.9,6.4L20.9,6.4L20.9,6.4z"/>
<text transform="matrix(1 0 0 1 15.9927 1.6709)" class="st1 st2 st3">ТМ</text>
<text transform="matrix(1 0 0 1 55.6646 1.749)" class="st1 st2 st3">ТМ</text>
</svg>
