<?xml version="1.0" standalone="no"?>
<!DOCTYPE svg PUBLIC "-//W3C//DTD SVG 20010904//EN"
 "http://www.w3.org/TR/2001/REC-SVG-20010904/DTD/svg10.dtd">
<svg version="1.0" xmlns="http://www.w3.org/2000/svg"
 width="1120.000000pt" height="1120.000000pt" viewBox="0 0 1120.000000 1120.000000"
 preserveAspectRatio="xMidYMid meet">
<metadata>
Created by potrace 1.11, written by Peter Selinger 2001-2013
</metadata>
<g transform="translate(0.000000,1120.000000) scale(0.100000,-0.100000)"
fill="#000000" stroke="none">
<path d="M5299 8175 c-3 -2 -81 -7 -174 -11 -94 -3 -190 -7 -215 -9 -156 -9
-260 -16 -290 -20 -19 -2 -71 -6 -115 -10 -44 -4 -91 -8 -105 -10 -14 -1 -59
-6 -100 -10 -41 -4 -83 -9 -92 -10 -9 -2 -43 -6 -75 -10 -33 -3 -70 -7 -84
-10 -20 -3 -99 -15 -219 -31 -14 -2 -36 -6 -50 -8 -14 -3 -43 -7 -65 -11 -22
-3 -53 -9 -70 -12 -16 -3 -39 -7 -50 -9 -11 -2 -30 -5 -41 -8 -12 -2 -39 -7
-60 -10 -37 -6 -59 -10 -114 -22 -14 -3 -35 -7 -48 -10 -145 -30 -370 -82
-427 -98 -5 -2 -23 -6 -40 -11 -121 -30 -366 -102 -500 -146 -88 -29 -162 -53
-165 -54 -3 -1 -16 -6 -30 -12 -14 -6 -81 -32 -150 -58 -209 -80 -612 -261
-630 -284 -3 -3 -30 -18 -60 -33 -30 -15 -76 -40 -101 -55 -26 -15 -73 -44
-105 -63 -33 -19 -68 -42 -78 -52 -11 -10 -24 -18 -29 -18 -5 0 -48 -28 -95
-62 -314 -225 -552 -465 -700 -707 -56 -92 -147 -281 -135 -281 3 0 1 -6 -4
-12 -8 -11 -22 -52 -24 -73 0 -2 -5 -19 -10 -37 -6 -18 -13 -46 -15 -63 -3
-16 -8 -41 -11 -55 -3 -14 -7 -83 -8 -155 -3 -126 10 -243 36 -336 7 -24 13
-49 15 -55 6 -30 79 -202 96 -227 11 -15 17 -27 13 -27 -3 0 8 -20 25 -44 16
-25 30 -49 30 -54 0 -6 3 -12 8 -14 4 -1 24 -29 45 -60 21 -31 46 -66 55 -76
9 -11 33 -40 52 -64 47 -58 223 -234 285 -283 28 -22 52 -43 55 -46 31 -36
396 -289 418 -289 6 0 12 -4 14 -8 2 -5 34 -26 73 -48 38 -21 79 -44 90 -51
124 -71 480 -236 665 -307 47 -18 94 -37 105 -41 11 -4 25 -9 30 -11 16 -5
300 -104 300 -105 0 0 7 -2 15 -4 8 -2 53 -16 100 -30 94 -30 102 -32 245 -70
55 -14 107 -29 115 -32 8 -3 24 -7 35 -8 11 -1 49 -10 85 -20 36 -10 74 -19
85 -21 11 -1 29 -5 40 -8 23 -7 196 -44 240 -52 17 -3 35 -7 40 -8 6 -2 28 -6
50 -10 22 -4 60 -11 85 -16 25 -5 61 -12 80 -15 19 -2 46 -7 60 -9 14 -3 41
-7 60 -10 19 -3 46 -8 60 -11 14 -3 47 -7 75 -10 27 -3 57 -7 65 -9 8 -3 42
-8 75 -12 33 -3 69 -8 80 -9 11 -2 43 -6 70 -9 28 -4 66 -8 85 -11 38 -5 89
-10 195 -20 39 -3 90 -8 115 -10 166 -16 210 -19 485 -33 77 -4 327 -7 555 -7
370 1 536 5 735 19 33 3 103 7 155 11 52 3 111 8 130 10 19 2 64 6 100 9 36 4
79 8 95 10 17 2 62 7 100 11 39 3 81 8 95 10 58 9 111 16 151 20 24 3 55 8 69
11 14 3 32 6 40 6 8 0 35 4 60 8 25 5 65 11 90 15 82 11 324 55 420 76 52 12
109 23 125 26 42 7 60 11 60 13 0 1 11 4 25 6 46 8 376 93 403 103 15 6 27 9
27 6 0 -2 19 3 43 11 23 9 49 17 57 19 8 2 15 4 15 5 0 2 13 5 51 14 34 7 386
125 419 140 17 8 54 21 82 31 29 9 55 21 58 26 4 5 13 9 21 9 24 0 332 136
491 217 575 292 990 630 1231 1003 58 88 145 264 158 316 4 16 10 34 14 39 5
6 19 57 31 115 19 84 23 134 23 250 0 80 -3 163 -7 185 -4 22 -9 52 -11 67 -2
14 -12 52 -22 85 -9 32 -18 63 -20 68 -14 64 -135 306 -171 343 -7 7 -13 18
-13 23 0 5 -7 17 -15 27 -9 9 -48 58 -87 107 -117 148 -293 313 -473 446 -33
24 -62 46 -65 49 -13 13 -102 70 -109 70 -5 0 -11 4 -13 9 -6 16 -263 165
-448 259 -102 52 -185 94 -185 93 0 -2 -59 23 -145 61 -203 91 -806 299 -937
322 -15 3 -39 10 -53 15 -14 6 -83 24 -155 41 -71 17 -146 35 -165 40 -29 8
-101 23 -315 67 -16 3 -37 7 -45 8 -8 1 -28 5 -45 8 -16 4 -43 9 -60 12 -16 3
-41 7 -55 10 -14 3 -38 7 -55 10 -45 6 -107 16 -135 21 -45 8 -196 29 -270 39
-25 3 -56 7 -70 9 -14 3 -54 8 -90 11 -36 4 -78 8 -95 10 -16 2 -57 6 -90 9
-33 3 -78 8 -100 10 -92 10 -276 23 -430 31 -213 12 -265 13 -265 6 0 -4 19
-8 43 -10 86 -5 206 -20 277 -35 14 -3 59 -12 100 -21 115 -23 119 -24 220
-51 52 -14 140 -41 195 -61 55 -19 105 -35 110 -37 24 -7 90 -33 185 -74 262
-112 600 -320 789 -487 211 -186 421 -425 528 -600 72 -119 163 -294 163 -314
0 -6 5 -11 12 -11 6 0 9 -3 5 -6 -3 -4 0 -19 8 -34 37 -72 120 -354 131 -450
3 -19 7 -46 10 -60 26 -129 25 -467 -1 -625 -13 -78 -15 -92 -20 -114 -54
-278 -229 -664 -402 -886 -13 -16 -27 -34 -31 -40 -137 -183 -402 -441 -557
-543 -22 -15 -43 -31 -46 -35 -4 -5 -15 -14 -27 -20 -11 -7 -44 -28 -73 -47
-207 -136 -522 -292 -704 -350 -22 -7 -44 -15 -50 -19 -5 -3 -14 -6 -20 -7 -5
-2 -48 -14 -95 -29 -47 -14 -93 -28 -103 -30 -10 -2 -27 -7 -37 -10 -10 -3
-27 -8 -37 -10 -30 -7 -148 -34 -174 -39 -13 -3 -49 -10 -79 -16 -30 -6 -71
-13 -90 -16 -19 -2 -69 -9 -110 -14 -41 -5 -109 -13 -150 -17 -99 -10 -628
-10 -705 0 -33 5 -78 10 -100 13 -22 2 -56 6 -75 9 -19 3 -51 8 -70 10 -19 3
-46 7 -60 10 -14 3 -41 8 -60 11 -32 5 -87 17 -135 30 -11 3 -29 6 -40 8 -17
3 -119 29 -163 42 -7 2 -14 4 -17 4 -11 2 -272 91 -290 100 -11 5 -49 21 -83
35 -72 29 -294 136 -302 144 -3 3 -25 17 -50 30 -75 40 -238 144 -272 173 -18
15 -36 28 -40 28 -8 0 -45 29 -80 63 -10 9 -21 17 -25 17 -20 0 -252 223 -353
340 -36 41 -67 77 -70 80 -14 13 -113 154 -163 230 -135 209 -260 507 -303
723 -15 80 -35 205 -40 254 -8 86 -8 319 1 393 4 36 9 80 11 99 16 148 89 409
160 566 10 22 18 42 19 45 6 28 176 326 194 340 3 3 11 12 16 21 81 131 315
387 475 520 35 30 71 60 78 67 7 6 16 12 20 12 4 0 21 14 39 30 18 17 35 30
38 30 10 0 69 44 78 58 4 6 12 12 17 12 5 0 35 17 67 38 174 116 467 257 706
341 105 37 359 107 419 116 23 4 45 8 49 10 5 4 38 11 94 20 11 2 34 6 50 10
17 4 46 8 65 10 19 1 60 5 90 9 80 9 153 17 167 18 7 1 10 5 7 10 -6 9 -9 10
-15 3z"/>
<path d="M5366 8172 c-3 -5 1 -9 9 -9 8 0 12 4 9 9 -3 4 -7 8 -9 8 -2 0 -6 -4
-9 -8z"/>
<path d="M5908 8163 c6 -2 18 -2 25 0 6 3 1 5 -13 5 -14 0 -19 -2 -12 -5z"/>
<path d="M5510 8145 c-69 -19 -98 -32 -154 -70 -57 -38 -148 -124 -186 -175
-14 -18 -30 -38 -35 -44 -38 -42 -132 -208 -190 -336 -51 -113 -58 -130 -70
-175 -4 -16 -11 -34 -15 -40 -4 -5 -22 -57 -40 -115 -46 -153 -49 -163 -54
-190 -3 -14 -16 -70 -30 -125 -13 -55 -27 -118 -30 -140 -4 -22 -8 -47 -11
-55 -2 -8 -6 -31 -9 -50 -3 -19 -8 -48 -11 -65 -12 -73 -16 -101 -31 -210 -6
-53 -8 -69 -19 -180 -15 -148 -26 -399 -26 -590 0 -245 14 -487 37 -675 7 -53
10 -79 18 -140 3 -25 7 -54 9 -65 3 -11 8 -42 11 -69 4 -27 9 -52 10 -55 2 -3
7 -28 10 -55 4 -27 9 -53 12 -57 2 -4 6 -20 8 -36 2 -15 8 -46 14 -68 6 -22
14 -55 17 -74 3 -19 8 -38 11 -43 3 -5 8 -23 11 -41 6 -39 101 -330 139 -422
15 -38 53 -119 83 -179 80 -155 83 -161 93 -164 4 -2 8 -8 8 -14 0 -18 93
-133 169 -208 104 -103 209 -154 336 -164 19 -1 83 7 133 18 25 5 115 52 147
76 24 19 165 159 185 186 49 62 136 208 187 314 97 201 219 577 257 795 3 17
8 41 11 55 3 14 7 36 10 50 3 14 7 36 10 50 3 14 7 45 10 70 3 25 8 54 10 66
6 28 10 57 30 224 6 48 11 107 22 260 14 192 6 791 -11 900 -2 14 -7 61 -11
105 -4 44 -9 91 -12 104 -2 14 -6 43 -8 66 -2 22 -6 51 -9 65 -2 14 -10 59
-16 100 -7 41 -14 84 -16 95 -2 11 -6 32 -9 48 -59 321 -183 700 -303 927 -46
86 -114 199 -142 234 -21 26 -101 119 -114 131 -61 60 -170 127 -245 150 -42
13 -155 13 -201 0z"/>
</g>
</svg>
